<svg width="22" height="22" viewBox="0 0 22 22" fill="none" xmlns="http://www.w3.org/2000/svg">
<mask id="mask0" mask-type="alpha" maskUnits="userSpaceOnUse" x="0" y="-1" width="22" height="23">
<path fill-rule="evenodd" clip-rule="evenodd" d="M10.515 -0.000610352C4.707 -0.000610352 0 4.70639 0 10.5144C0 16.3214 4.707 21.0284 10.515 21.0284C16.321 21.0284 21.029 16.3214 21.029 10.5144C21.029 4.70639 16.321 -0.000610352 10.515 -0.000610352Z" fill="white"/>
</mask>
<g mask="url(#mask0)">
<path fill-rule="evenodd" clip-rule="evenodd" d="M10.515 -0.000610352C4.707 -0.000610352 0 4.70639 0 10.5144C0 16.3214 4.707 21.0284 10.515 21.0284C16.321 21.0284 21.029 16.3214 21.029 10.5144C21.029 4.70639 16.321 -0.000610352 10.515 -0.000610352Z" fill="#85838B"/>
</g>
<path fill-rule="evenodd" clip-rule="evenodd" d="M15.6305 6.0478L13.7525 15.5168C13.7525 15.5168 13.4895 16.1728 12.7675 15.8588L8.4335 12.5348L6.8585 11.7738L4.2055 10.8808C4.2055 10.8808 3.7975 10.7358 3.7585 10.4208C3.7195 10.1068 4.2185 9.9358 4.2185 9.9358L14.7635 5.7988C14.7635 5.7988 15.6305 5.4178 15.6305 6.0478Z" fill="white"/>
<path fill-rule="evenodd" clip-rule="evenodd" d="M8.1007 15.4101C8.1007 15.4101 7.9747 15.3981 7.8167 14.8991C7.6587 14.4001 6.8577 11.7731 6.8577 11.7731L13.2267 7.72912C13.2267 7.72912 13.5947 7.50612 13.5817 7.72912C13.5817 7.72912 13.6467 7.76812 13.4507 7.95212C13.2537 8.13612 8.4467 12.4571 8.4467 12.4571" fill="#D5D5D5"/>
<path fill-rule="evenodd" clip-rule="evenodd" d="M10.0953 13.8095L8.3813 15.3715C8.3813 15.3715 8.2473 15.4735 8.1003 15.4105L8.4283 12.5065" fill="#EAEAEA"/>
</svg>
