<svg width="21" height="23" viewBox="0 0 21 23" fill="none" xmlns="http://www.w3.org/2000/svg">
<mask id="mask0" mask-type="alpha" maskUnits="userSpaceOnUse" x="0" y="-1" width="21" height="24">
<path fill-rule="evenodd" clip-rule="evenodd" d="M0.000366211 -0.000305176H20.779V22.4313H0.000366211V-0.000305176Z" fill="white"/>
</mask>
<g mask="url(#mask0)">
<path fill-rule="evenodd" clip-rule="evenodd" d="M18.4332 2.18671C17.8892 1.67271 15.6882 0.0387091 10.7872 0.0157091C10.7872 0.0157091 5.0082 -0.340291 2.1912 2.30471C0.623196 3.91071 0.0711957 6.25971 0.0131957 9.17371C-0.0448043 12.0867 -0.120804 17.5457 5.0192 19.0277L5.0242 19.0287L5.0212 21.2877C5.0212 21.2877 4.9892 22.2027 5.5772 22.3877C6.2882 22.6147 6.7062 21.9187 7.3852 21.1697C7.7582 20.7587 8.2722 20.1547 8.6612 19.6937C12.1772 19.9947 14.8812 19.3027 15.1872 19.2017C15.8972 18.9647 19.9142 18.4387 20.5682 12.9797C21.2422 7.35071 20.2412 3.79171 18.4332 2.18671ZM19.0402 12.5727C18.4882 17.1307 15.2312 17.4187 14.6312 17.6167C14.3752 17.7007 11.9992 18.3057 9.0142 18.1057L5.7772 21.6927L5.7732 17.5587L5.7482 17.5517C1.3992 16.3157 1.5462 11.6797 1.5952 9.24671C1.6442 6.81371 2.0902 4.81971 3.4172 3.47871C5.8002 1.26971 10.7082 1.59971 10.7082 1.59971C14.8542 1.61871 16.8412 2.89571 17.3022 3.32471C18.8312 4.66571 19.6102 7.87371 19.0402 12.5727Z" fill="#85838B"/>
</g>
<path fill-rule="evenodd" clip-rule="evenodd" d="M15.298 13.2531C15.296 13.2511 14.638 12.6911 14.318 12.4481C14.015 12.2211 13.532 11.9151 13.262 11.7591C12.778 11.4831 12.284 11.6561 12.08 11.9281L11.655 12.4741C11.438 12.7501 11.103 12.7031 11.015 12.6861C10.388 12.5281 9.72099 12.1371 9.03899 11.4761C8.34899 10.8101 7.93199 10.1131 7.78299 9.39008L7.77199 9.34208C7.73199 9.04508 7.78099 8.90708 7.90299 8.70408L7.92599 8.68608C8.21299 8.41908 8.74299 8.09508 8.81499 7.78608C9.02399 7.25008 8.11699 6.13108 7.98699 5.93408C7.98699 5.93408 7.32799 5.06208 7.09399 4.89508C6.84099 4.68408 6.44899 4.56408 6.05399 4.80708L6.03299 4.82108C4.89799 5.59008 4.48599 6.03208 4.59799 6.69108L4.65699 6.95608C5.23299 8.77208 6.34499 10.7081 8.00399 12.4321C9.64399 14.1341 11.419 15.1531 13.169 15.8601C13.623 16.0111 14.094 15.8811 14.577 15.4681L14.586 15.4621C14.956 15.1151 15.25 14.7451 15.468 14.3491L15.47 14.3401C15.683 13.9211 15.611 13.5241 15.298 13.2531Z" fill="#85838B"/>
<path fill-rule="evenodd" clip-rule="evenodd" d="M12.5743 9.2766C12.5053 9.2766 12.4473 9.2206 12.4443 9.1496C12.4213 8.6786 12.2943 8.3186 12.0673 8.0776C11.8413 7.8396 11.5013 7.7056 11.0603 7.6806C10.9883 7.6766 10.9323 7.6136 10.9363 7.5406C10.9403 7.4656 11.0013 7.4106 11.0743 7.4136C11.5843 7.4416 11.9813 7.6026 12.2553 7.8916C12.5273 8.1806 12.6793 8.5986 12.7053 9.1356C12.7083 9.2106 12.6533 9.2726 12.5813 9.2766H12.5743Z" fill="#85838B"/>
<path fill-rule="evenodd" clip-rule="evenodd" d="M13.8688 9.72091H13.8658C13.7938 9.71891 13.7368 9.65791 13.7378 9.58391C13.7578 8.68091 13.4938 7.91591 12.9528 7.31291C12.6838 7.01091 12.3568 6.77291 11.9808 6.60391C11.6028 6.43591 11.1638 6.33091 10.6748 6.29491C10.6028 6.28891 10.5488 6.22491 10.5538 6.15191C10.5588 6.07791 10.6218 6.02191 10.6938 6.02791C11.7368 6.10591 12.5618 6.47791 13.1468 7.13191C13.7338 7.78691 14.0208 8.61591 13.9998 9.58991C13.9978 9.66291 13.9388 9.72091 13.8688 9.72091Z" fill="#85838B"/>
<path fill-rule="evenodd" clip-rule="evenodd" d="M15.194 10.2512C15.122 10.2512 15.064 10.1922 15.063 10.1182C15.057 9.3192 14.937 8.5982 14.705 7.9712C14.474 7.3482 14.125 6.8012 13.669 6.3452C13.212 5.8892 12.692 5.5412 12.124 5.3112C11.555 5.0802 10.921 4.9602 10.238 4.9562C10.167 4.9552 10.109 4.8952 10.109 4.8202C10.11 4.7472 10.168 4.6882 10.24 4.6882C11.673 4.6982 12.887 5.1912 13.851 6.1532C14.336 6.6372 14.705 7.2162 14.949 7.8762C15.192 8.5312 15.318 9.2862 15.325 10.1162C15.325 10.1902 15.267 10.2512 15.195 10.2512H15.194Z" fill="#85838B"/>
</svg>
