<svg width="21" height="22" viewBox="0 0 21 22" fill="none" xmlns="http://www.w3.org/2000/svg">
<path fill-rule="evenodd" clip-rule="evenodd" d="M10.6533 19.0368C7.9933 19.0368 5.86331 17.5998 5.86331 17.5998L2.59631 18.6658L3.65631 15.5018C3.65631 15.5018 1.96331 13.1568 1.96331 10.3468C1.96331 5.54679 5.8533 1.65479 10.6533 1.65479C15.4533 1.65479 19.3443 5.54679 19.3443 10.3468C19.3443 15.1458 15.4533 19.0368 10.6533 19.0368ZM10.6533 -0.000213623C4.9393 -0.000213623 0.307305 4.63279 0.307305 10.3468C0.307305 13.1828 1.80831 15.7168 1.80831 15.7168L0.000305176 21.2258L5.66931 19.4148C5.66931 19.4148 7.7733 20.6918 10.6533 20.6918C16.3673 20.6918 20.9993 16.0598 20.9993 10.3468C20.9993 4.63279 16.3673 -0.000213623 10.6533 -0.000213623Z" fill="#85838B"/>
<path fill-rule="evenodd" clip-rule="evenodd" d="M6.7134 5.8414C6.7134 5.8414 6.9934 5.6644 7.1384 5.6644H7.9544C7.9544 5.6644 8.1724 5.7024 8.2734 5.9304C8.3734 6.1574 9.0604 7.7734 9.1114 7.8974C9.1624 8.0224 9.2964 8.3294 9.0824 8.6064C8.8684 8.8824 8.4204 9.3974 8.4204 9.3974C8.4204 9.3974 8.2434 9.5574 8.3974 9.8114C8.5504 10.0654 9.0904 10.9034 9.7964 11.5354C10.5034 12.1684 11.3684 12.6344 11.7994 12.7764C12.2304 12.9174 12.3244 12.7294 12.4904 12.5164C12.6554 12.3034 13.1694 11.6534 13.1694 11.6534C13.1694 11.6534 13.3464 11.3944 13.6944 11.5534C14.0434 11.7124 15.7384 12.5334 15.7384 12.5334C15.7384 12.5334 15.9454 12.5694 15.9574 12.7994C15.9684 13.0294 16.1104 13.7194 15.4964 14.3824C14.8824 15.0454 13.5754 15.3534 12.9574 15.1794C12.3384 15.0064 10.2934 14.4714 8.9584 13.2274C7.6244 11.9844 6.5444 10.6744 6.1024 9.7084C5.6604 8.7424 5.6854 8.1694 5.7094 7.9004C5.7344 7.6294 5.8764 6.3784 6.7134 5.8414Z" fill="#85838B"/>
</svg>
