<svg width="67" height="55" viewBox="0 0 67 55" fill="none" xmlns="http://www.w3.org/2000/svg">
<path d="M7.92441 41.775C7.97108 41.4483 8.06108 41.16 8.19441 40.91C8.32775 40.6567 8.49608 40.445 8.69941 40.275C8.90608 40.105 9.14108 39.9767 9.40441 39.89C9.67108 39.8 9.95775 39.755 10.2644 39.755C10.5677 39.755 10.8477 39.7983 11.1044 39.885C11.3611 39.9717 11.5811 40.095 11.7644 40.255C11.9511 40.415 12.0961 40.6083 12.1994 40.835C12.3027 41.0617 12.3544 41.3133 12.3544 41.59C12.3544 41.8167 12.3244 42.02 12.2644 42.2C12.2077 42.3767 12.1244 42.5317 12.0144 42.665C11.9077 42.7983 11.7777 42.9117 11.6244 43.005C11.4711 43.0983 11.2994 43.175 11.1094 43.235C11.5761 43.355 11.9261 43.5617 12.1594 43.855C12.3961 44.145 12.5144 44.5083 12.5144 44.945C12.5144 45.275 12.4511 45.5717 12.3244 45.835C12.2011 46.0983 12.0311 46.3233 11.8144 46.51C11.5977 46.6933 11.3444 46.835 11.0544 46.935C10.7677 47.0317 10.4594 47.08 10.1294 47.08C9.74941 47.08 9.42441 47.0333 9.15441 46.94C8.88441 46.8433 8.65608 46.7117 8.46941 46.545C8.28275 46.3783 8.12941 46.1817 8.00941 45.955C7.88941 45.725 7.78775 45.4767 7.70441 45.21L8.08941 45.05C8.18941 45.0067 8.28608 44.995 8.37941 45.015C8.47608 45.035 8.54608 45.09 8.58941 45.18C8.63275 45.2733 8.68608 45.385 8.74941 45.515C8.81608 45.645 8.90608 45.77 9.01941 45.89C9.13275 46.01 9.27608 46.1117 9.44941 46.195C9.62608 46.2783 9.84941 46.32 10.1194 46.32C10.3694 46.32 10.5877 46.28 10.7744 46.2C10.9644 46.1167 11.1211 46.01 11.2444 45.88C11.3711 45.75 11.4661 45.605 11.5294 45.445C11.5927 45.285 11.6244 45.1267 11.6244 44.97C11.6244 44.7767 11.5994 44.6 11.5494 44.44C11.4994 44.28 11.4061 44.1417 11.2694 44.025C11.1327 43.9083 10.9444 43.8167 10.7044 43.75C10.4677 43.6833 10.1627 43.65 9.78941 43.65V43.005C10.0961 43.0017 10.3561 42.9683 10.5694 42.905C10.7861 42.8417 10.9611 42.755 11.0944 42.645C11.2311 42.535 11.3294 42.4033 11.3894 42.25C11.4527 42.0967 11.4844 41.9267 11.4844 41.74C11.4844 41.5333 11.4511 41.3533 11.3844 41.2C11.3211 41.0467 11.2327 40.92 11.1194 40.82C11.0061 40.72 10.8711 40.645 10.7144 40.595C10.5611 40.545 10.3944 40.52 10.2144 40.52C10.0344 40.52 9.86608 40.5467 9.70941 40.6C9.55608 40.6533 9.41941 40.7283 9.29941 40.825C9.18275 40.9183 9.08441 41.03 9.00441 41.16C8.92441 41.29 8.86775 41.4333 8.83441 41.59C8.79108 41.7067 8.73608 41.785 8.66941 41.825C8.60608 41.8617 8.51275 41.8717 8.38941 41.855L7.92441 41.775ZM13.7002 43.625H16.1702V44.38H13.7002V43.625ZM22.7947 44.72C22.3847 44.7333 22.0347 44.7667 21.7447 44.82C21.4581 44.87 21.2231 44.9367 21.0397 45.02C20.8597 45.1033 20.7281 45.2017 20.6447 45.315C20.5647 45.4283 20.5247 45.555 20.5247 45.695C20.5247 45.8283 20.5464 45.9433 20.5897 46.04C20.6331 46.1367 20.6914 46.2167 20.7647 46.28C20.8414 46.34 20.9297 46.385 21.0297 46.415C21.1331 46.4417 21.2431 46.455 21.3597 46.455C21.5164 46.455 21.6597 46.44 21.7897 46.41C21.9197 46.3767 22.0414 46.33 22.1547 46.27C22.2714 46.21 22.3814 46.1383 22.4847 46.055C22.5914 45.9717 22.6947 45.8767 22.7947 45.77V44.72ZM19.9197 42.65C20.1997 42.38 20.5014 42.1783 20.8247 42.045C21.1481 41.9117 21.5064 41.845 21.8997 41.845C22.1831 41.845 22.4347 41.8917 22.6547 41.985C22.8747 42.0783 23.0597 42.2083 23.2097 42.375C23.3597 42.5417 23.4731 42.7433 23.5497 42.98C23.6264 43.2167 23.6647 43.4767 23.6647 43.76V47H23.2697C23.1831 47 23.1164 46.9867 23.0697 46.96C23.0231 46.93 22.9864 46.8733 22.9597 46.79L22.8597 46.31C22.7264 46.4333 22.5964 46.5433 22.4697 46.64C22.3431 46.7333 22.2097 46.8133 22.0697 46.88C21.9297 46.9433 21.7797 46.9917 21.6197 47.025C21.4631 47.0617 21.2881 47.08 21.0947 47.08C20.8981 47.08 20.7131 47.0533 20.5397 47C20.3664 46.9433 20.2147 46.86 20.0847 46.75C19.9581 46.64 19.8564 46.5017 19.7797 46.335C19.7064 46.165 19.6697 45.965 19.6697 45.735C19.6697 45.535 19.7247 45.3433 19.8347 45.16C19.9447 44.9733 20.1231 44.8083 20.3697 44.665C20.6164 44.5217 20.9381 44.405 21.3347 44.315C21.7314 44.2217 22.2181 44.1683 22.7947 44.155V43.76C22.7947 43.3667 22.7097 43.07 22.5397 42.87C22.3697 42.6667 22.1214 42.565 21.7947 42.565C21.5747 42.565 21.3897 42.5933 21.2397 42.65C21.0931 42.7033 20.9647 42.765 20.8547 42.835C20.7481 42.9017 20.6547 42.9633 20.5747 43.02C20.4981 43.0733 20.4214 43.1 20.3447 43.1C20.2847 43.1 20.2331 43.085 20.1897 43.055C20.1464 43.0217 20.1097 42.9817 20.0797 42.935L19.9197 42.65ZM27.6854 44.3V42.535H26.8354C26.6454 42.535 26.4854 42.5633 26.3554 42.62C26.2254 42.6733 26.1204 42.7433 26.0404 42.83C25.9638 42.9133 25.9088 43.0083 25.8754 43.115C25.8421 43.2183 25.8254 43.3217 25.8254 43.425C25.8254 43.6983 25.9254 43.9133 26.1254 44.07C26.3254 44.2233 26.5988 44.3 26.9454 44.3H27.6854ZM28.5354 41.935V47H27.6854V44.865H27.2954C27.2021 44.865 27.1238 44.8733 27.0604 44.89C27.0004 44.9033 26.9471 44.9233 26.9004 44.95C26.8571 44.9767 26.8188 45.0117 26.7854 45.055C26.7521 45.095 26.7171 45.1417 26.6804 45.195L25.5704 46.69C25.5138 46.7967 25.4438 46.875 25.3604 46.925C25.2804 46.975 25.1621 47 25.0054 47H24.3854L25.8554 45.09C25.9754 44.89 26.1338 44.7567 26.3304 44.69C26.0738 44.6567 25.8571 44.5967 25.6804 44.51C25.5038 44.4233 25.3588 44.3217 25.2454 44.205C25.1354 44.085 25.0554 43.9533 25.0054 43.81C24.9554 43.6667 24.9304 43.5217 24.9304 43.375C24.9304 43.2017 24.9638 43.0283 25.0304 42.855C25.1004 42.6817 25.2104 42.5283 25.3604 42.395C25.5104 42.2583 25.7038 42.1483 25.9404 42.065C26.1804 41.9783 26.4704 41.935 26.8104 41.935H28.5354ZM36.9507 47H36.0607V42.635H34.4607C34.4207 43.2783 34.3607 43.835 34.2807 44.305C34.2007 44.7717 34.104 45.17 33.9907 45.5C33.8807 45.8267 33.7557 46.0933 33.6157 46.3C33.479 46.5033 33.334 46.6617 33.1807 46.775C33.0307 46.8883 32.874 46.965 32.7107 47.005C32.5507 47.045 32.3907 47.065 32.2307 47.065C31.9473 47.065 31.8057 47.02 31.8057 46.93V46.365H32.0657C32.179 46.365 32.294 46.345 32.4107 46.305C32.5273 46.265 32.6407 46.1883 32.7507 46.075C32.864 45.9617 32.9723 45.8033 33.0757 45.6C33.179 45.3933 33.2723 45.1267 33.3557 44.8C33.4423 44.47 33.5157 44.0717 33.5757 43.605C33.639 43.135 33.6873 42.5783 33.7207 41.935H36.9507V47ZM42.7053 41.935V47H41.8153V43.56C41.8153 43.4933 41.8186 43.4217 41.8253 43.345C41.8319 43.2683 41.8403 43.1917 41.8503 43.115C41.8203 43.1817 41.7903 43.2433 41.7603 43.3C41.7303 43.3567 41.6986 43.4083 41.6653 43.455L39.2203 46.78C39.1836 46.8333 39.1369 46.885 39.0803 46.935C39.0269 46.9817 38.9669 47.005 38.9003 47.005H38.3603V41.94H39.2553V45.38C39.2553 45.4433 39.2519 45.5133 39.2453 45.59C39.2386 45.6633 39.2303 45.7383 39.2203 45.815C39.2503 45.7517 39.2803 45.6933 39.3103 45.64C39.3403 45.5833 39.3703 45.5317 39.4003 45.485L41.8453 42.16C41.8819 42.1067 41.9286 42.0567 41.9853 42.01C42.0419 41.96 42.1036 41.935 42.1703 41.935H42.7053ZM48.3322 41.935V47H47.4372V44.63H45.0072V47H44.1122V41.935H45.0072V43.955H47.4372V41.935H48.3322ZM54.092 41.935V47H53.202V43.56C53.202 43.4933 53.2053 43.4217 53.212 43.345C53.2187 43.2683 53.227 43.1917 53.237 43.115C53.207 43.1817 53.177 43.2433 53.147 43.3C53.117 43.3567 53.0853 43.4083 53.052 43.455L50.607 46.78C50.5703 46.8333 50.5237 46.885 50.467 46.935C50.4137 46.9817 50.3537 47.005 50.287 47.005H49.747V41.94H50.642V45.38C50.642 45.4433 50.6387 45.5133 50.632 45.59C50.6253 45.6633 50.617 45.7383 50.607 45.815C50.637 45.7517 50.667 45.6933 50.697 45.64C50.727 45.5833 50.757 45.5317 50.787 45.485L53.232 42.16C53.2687 42.1067 53.3153 42.0567 53.372 42.01C53.4287 41.96 53.4903 41.935 53.557 41.935H54.092ZM58.1639 44.3V42.535H57.3139C57.1239 42.535 56.9639 42.5633 56.8339 42.62C56.7039 42.6733 56.5989 42.7433 56.5189 42.83C56.4423 42.9133 56.3873 43.0083 56.3539 43.115C56.3206 43.2183 56.3039 43.3217 56.3039 43.425C56.3039 43.6983 56.4039 43.9133 56.6039 44.07C56.8039 44.2233 57.0773 44.3 57.4239 44.3H58.1639ZM59.0139 41.935V47H58.1639V44.865H57.7739C57.6806 44.865 57.6023 44.8733 57.5389 44.89C57.4789 44.9033 57.4256 44.9233 57.3789 44.95C57.3356 44.9767 57.2973 45.0117 57.2639 45.055C57.2306 45.095 57.1956 45.1417 57.1589 45.195L56.0489 46.69C55.9923 46.7967 55.9223 46.875 55.8389 46.925C55.7589 46.975 55.6406 47 55.4839 47H54.8639L56.3339 45.09C56.4539 44.89 56.6123 44.7567 56.8089 44.69C56.5523 44.6567 56.3356 44.5967 56.1589 44.51C55.9823 44.4233 55.8373 44.3217 55.7239 44.205C55.6139 44.085 55.5339 43.9533 55.4839 43.81C55.4339 43.6667 55.4089 43.5217 55.4089 43.375C55.4089 43.2017 55.4423 43.0283 55.5089 42.855C55.5789 42.6817 55.6889 42.5283 55.8389 42.395C55.9889 42.2583 56.1823 42.1483 56.4189 42.065C56.6589 41.9783 56.9489 41.935 57.2889 41.935H59.0139Z" fill="#161A23"/>
<path d="M24.2344 20.6611V12.6111" stroke="black" stroke-linecap="round" stroke-linejoin="round"/>
<path fill-rule="evenodd" clip-rule="evenodd" d="M24.2119 5.7529C20.4849 5.7529 17.4639 8.7739 17.4639 12.5019H30.9609C30.9609 8.7739 27.9399 5.7529 24.2119 5.7529Z" stroke="black" stroke-linecap="round" stroke-linejoin="round"/>
<path fill-rule="evenodd" clip-rule="evenodd" d="M24.2119 5.7529C22.0509 5.7529 21.2119 8.7739 21.2119 12.5019H27.2119C27.2119 8.7739 26.3739 5.7529 24.2119 5.7529Z" stroke="black" stroke-linecap="round" stroke-linejoin="round"/>
<path d="M15.5 20.6611H51.303" stroke="black" stroke-linecap="round" stroke-linejoin="round"/>
<path fill-rule="evenodd" clip-rule="evenodd" d="M47.8115 6.9853C47.8115 8.5983 46.5035 9.9063 44.8905 9.9063C43.2785 9.9063 41.9705 8.5983 41.9705 6.9853C41.9705 5.3733 43.2785 4.0653 44.8905 4.0653C46.5035 4.0653 47.8115 5.3733 47.8115 6.9853Z" stroke="black" stroke-linecap="round" stroke-linejoin="round"/>
<path d="M44.8906 13.4716V11.1016" stroke="black" stroke-linecap="round" stroke-linejoin="round"/>
<path d="M44.8906 2.8701V0.5001" stroke="black" stroke-linecap="round" stroke-linejoin="round"/>
<path d="M38.4053 6.9853H40.7753" stroke="black" stroke-linecap="round" stroke-linejoin="round"/>
<path d="M49.0068 6.9853H51.3768" stroke="black" stroke-linecap="round" stroke-linejoin="round"/>
<path d="M40.3047 2.3994L41.9807 4.0754" stroke="black" stroke-linecap="round" stroke-linejoin="round"/>
<path d="M47.8008 9.8955L49.4768 11.5715" stroke="black" stroke-linecap="round" stroke-linejoin="round"/>
<path d="M49.4766 2.3994L47.8006 4.0754" stroke="black" stroke-linecap="round" stroke-linejoin="round"/>
<path d="M41.9805 9.8955L40.3045 11.5715" stroke="black" stroke-linecap="round" stroke-linejoin="round"/>
<path d="M15.5 23.0429H51.303" stroke="black" stroke-linecap="round" stroke-linejoin="round"/>
<path d="M15.5 25.4257H51.303" stroke="black" stroke-linecap="round" stroke-linejoin="round"/>
<path d="M51.3027 28.8066C51.1607 28.3206 50.7167 27.9626 50.1847 27.9626C49.6527 27.9626 49.2077 28.3206 49.0657 28.8066" stroke="black" stroke-linecap="round" stroke-linejoin="round"/>
<path d="M17.7373 28.8066C17.5953 29.2926 17.1513 29.6506 16.6193 29.6506C16.0873 29.6506 15.6423 29.2926 15.5003 28.8066" stroke="black" stroke-linecap="round" stroke-linejoin="round"/>
<path d="M19.9756 28.8066C19.8326 28.3206 19.3886 27.9626 18.8566 27.9626C18.3246 27.9626 17.8796 28.3206 17.7376 28.8066" stroke="black" stroke-linecap="round" stroke-linejoin="round"/>
<path d="M22.2129 28.8066C22.0699 29.2926 21.6269 29.6506 21.0949 29.6506C20.5619 29.6506 20.1179 29.2926 19.9759 28.8066" stroke="black" stroke-linecap="round" stroke-linejoin="round"/>
<path d="M24.4512 28.8066C24.3082 28.3206 23.8642 27.9626 23.3322 27.9626C22.8002 27.9626 22.3552 28.3206 22.2132 28.8066" stroke="black" stroke-linecap="round" stroke-linejoin="round"/>
<path d="M26.6885 28.8066C26.5455 29.2926 26.1015 29.6506 25.5695 29.6506C25.0375 29.6506 24.5925 29.2926 24.4515 28.8066" stroke="black" stroke-linecap="round" stroke-linejoin="round"/>
<path d="M28.9258 28.8066C28.7838 28.3206 28.3398 27.9626 27.8078 27.9626C27.2758 27.9626 26.8308 28.3206 26.6888 28.8066" stroke="black" stroke-linecap="round" stroke-linejoin="round"/>
<path d="M31.1641 28.8066C31.0211 29.2926 30.5771 29.6506 30.0451 29.6506C29.5131 29.6506 29.0681 29.2926 28.9261 28.8066" stroke="black" stroke-linecap="round" stroke-linejoin="round"/>
<path d="M33.4014 28.8066C33.2584 28.3206 32.8154 27.9626 32.2834 27.9626C31.7504 27.9626 31.3064 28.3206 31.1644 28.8066" stroke="black" stroke-linecap="round" stroke-linejoin="round"/>
<path d="M35.6396 28.8066C35.4966 29.2926 35.0526 29.6506 34.5206 29.6506C33.9886 29.6506 33.5436 29.2926 33.4016 28.8066" stroke="black" stroke-linecap="round" stroke-linejoin="round"/>
<path d="M37.877 28.8066C37.734 28.3206 37.29 27.9626 36.758 27.9626C36.226 27.9626 35.781 28.3206 35.64 28.8066" stroke="black" stroke-linecap="round" stroke-linejoin="round"/>
<path d="M40.1143 28.8066C39.9723 29.2926 39.5283 29.6506 38.9963 29.6506C38.4643 29.6506 38.0193 29.2926 37.8773 28.8066" stroke="black" stroke-linecap="round" stroke-linejoin="round"/>
<path d="M42.3525 28.8066C42.2095 28.3206 41.7655 27.9626 41.2335 27.9626C40.7015 27.9626 40.2565 28.3206 40.1145 28.8066" stroke="black" stroke-linecap="round" stroke-linejoin="round"/>
<path d="M44.5898 28.8066C44.4478 29.2926 44.0038 29.6506 43.4718 29.6506C42.9388 29.6506 42.4948 29.2926 42.3528 28.8066" stroke="black" stroke-linecap="round" stroke-linejoin="round"/>
<path d="M46.8281 28.8066C46.6851 28.3206 46.2411 27.9626 45.7091 27.9626C45.1771 27.9626 44.7321 28.3206 44.5901 28.8066" stroke="black" stroke-linecap="round" stroke-linejoin="round"/>
<path d="M49.0654 28.8066C48.9224 29.2926 48.4784 29.6506 47.9464 29.6506C47.4144 29.6506 46.9694 29.2926 46.8284 28.8066" stroke="black" stroke-linecap="round" stroke-linejoin="round"/>
</svg>
