<svg width="54" height="51" viewBox="0 0 54 51" fill="none" xmlns="http://www.w3.org/2000/svg">
<g clip-path="url(#clip0)">
<path d="M16.0779 38.615H13.6879V43H12.7929V37.935H16.0779V38.615ZM19.6102 40.72C19.2002 40.7333 18.8502 40.7667 18.5602 40.82C18.2735 40.87 18.0385 40.9367 17.8552 41.02C17.6752 41.1033 17.5435 41.2017 17.4602 41.315C17.3802 41.4283 17.3402 41.555 17.3402 41.695C17.3402 41.8283 17.3618 41.9433 17.4052 42.04C17.4485 42.1367 17.5068 42.2167 17.5802 42.28C17.6568 42.34 17.7452 42.385 17.8452 42.415C17.9485 42.4417 18.0585 42.455 18.1752 42.455C18.3318 42.455 18.4752 42.44 18.6052 42.41C18.7352 42.3767 18.8568 42.33 18.9702 42.27C19.0868 42.21 19.1968 42.1383 19.3002 42.055C19.4068 41.9717 19.5102 41.8767 19.6102 41.77V40.72ZM16.7352 38.65C17.0152 38.38 17.3168 38.1783 17.6402 38.045C17.9635 37.9117 18.3218 37.845 18.7152 37.845C18.9985 37.845 19.2502 37.8917 19.4702 37.985C19.6902 38.0783 19.8752 38.2083 20.0252 38.375C20.1752 38.5417 20.2885 38.7433 20.3652 38.98C20.4418 39.2167 20.4802 39.4767 20.4802 39.76V43H20.0852C19.9985 43 19.9318 42.9867 19.8852 42.96C19.8385 42.93 19.8018 42.8733 19.7752 42.79L19.6752 42.31C19.5418 42.4333 19.4118 42.5433 19.2852 42.64C19.1585 42.7333 19.0252 42.8133 18.8852 42.88C18.7452 42.9433 18.5952 42.9917 18.4352 43.025C18.2785 43.0617 18.1035 43.08 17.9102 43.08C17.7135 43.08 17.5285 43.0533 17.3552 43C17.1818 42.9433 17.0302 42.86 16.9002 42.75C16.7735 42.64 16.6718 42.5017 16.5952 42.335C16.5218 42.165 16.4852 41.965 16.4852 41.735C16.4852 41.535 16.5402 41.3433 16.6502 41.16C16.7602 40.9733 16.9385 40.8083 17.1852 40.665C17.4318 40.5217 17.7535 40.405 18.1502 40.315C18.5468 40.2217 19.0335 40.1683 19.6102 40.155V39.76C19.6102 39.3667 19.5252 39.07 19.3552 38.87C19.1852 38.6667 18.9368 38.565 18.6102 38.565C18.3902 38.565 18.2052 38.5933 18.0552 38.65C17.9085 38.7033 17.7802 38.765 17.6702 38.835C17.5635 38.9017 17.4702 38.9633 17.3902 39.02C17.3135 39.0733 17.2368 39.1 17.1602 39.1C17.1002 39.1 17.0485 39.085 17.0052 39.055C16.9618 39.0217 16.9252 38.9817 16.8952 38.935L16.7352 38.65ZM26.2759 43H25.3859V38.635H23.7859C23.7459 39.2783 23.6859 39.835 23.6059 40.305C23.5259 40.7717 23.4292 41.17 23.3159 41.5C23.2059 41.8267 23.0809 42.0933 22.9409 42.3C22.8042 42.5033 22.6592 42.6617 22.5059 42.775C22.3559 42.8883 22.1992 42.965 22.0359 43.005C21.8759 43.045 21.7159 43.065 21.5559 43.065C21.2725 43.065 21.1309 43.02 21.1309 42.93V42.365H21.3909C21.5042 42.365 21.6192 42.345 21.7359 42.305C21.8525 42.265 21.9659 42.1883 22.0759 42.075C22.1892 41.9617 22.2975 41.8033 22.4009 41.6C22.5042 41.3933 22.5975 41.1267 22.6809 40.8C22.7675 40.47 22.8409 40.0717 22.9009 39.605C22.9642 39.135 23.0125 38.5783 23.0459 37.935H26.2759V43ZM29.6305 42.35C29.8105 42.35 29.9655 42.3283 30.0955 42.285C30.2288 42.2383 30.3388 42.175 30.4255 42.095C30.5121 42.0117 30.5771 41.915 30.6205 41.805C30.6638 41.695 30.6855 41.575 30.6855 41.445C30.6855 41.325 30.6671 41.2133 30.6305 41.11C30.5938 41.0033 30.5321 40.91 30.4455 40.83C30.3621 40.75 30.2521 40.6867 30.1155 40.64C29.9788 40.5933 29.8121 40.57 29.6155 40.57H28.5405V42.35H29.6305ZM29.6155 39.92C29.9655 39.92 30.2588 39.9617 30.4955 40.045C30.7355 40.1283 30.9271 40.24 31.0705 40.38C31.2171 40.52 31.3221 40.6817 31.3855 40.865C31.4488 41.0483 31.4805 41.2383 31.4805 41.435C31.4805 41.6617 31.4405 41.8717 31.3605 42.065C31.2805 42.255 31.1621 42.42 31.0055 42.56C30.8488 42.6967 30.6555 42.805 30.4255 42.885C30.1955 42.9617 29.9305 43 29.6305 43H27.6855V37.935H28.5405V39.92H29.6155ZM35.5456 38.185C35.5923 38.1117 35.654 38.0517 35.7306 38.005C35.8073 37.9583 35.889 37.935 35.9756 37.935H36.6706L35.3556 39.865C35.2756 39.9883 35.1923 40.09 35.1056 40.17C35.019 40.2467 34.9123 40.3067 34.7856 40.35C34.9456 40.3933 35.0806 40.4617 35.1906 40.555C35.3006 40.645 35.399 40.7617 35.4856 40.905L36.8156 43H36.1956C36.0356 43 35.9123 42.9733 35.8256 42.92C35.739 42.8667 35.664 42.79 35.6006 42.69L34.6156 41.115C34.459 40.855 34.224 40.725 33.9106 40.725H33.3656V43.005H32.4706V37.935H33.3656V40.125H33.8456C34.1123 40.125 34.3206 40.0117 34.4706 39.785L35.5456 38.185ZM40.3914 40.72C39.9814 40.7333 39.6314 40.7667 39.3414 40.82C39.0547 40.87 38.8197 40.9367 38.6364 41.02C38.4564 41.1033 38.3247 41.2017 38.2414 41.315C38.1614 41.4283 38.1214 41.555 38.1214 41.695C38.1214 41.8283 38.1431 41.9433 38.1864 42.04C38.2297 42.1367 38.2881 42.2167 38.3614 42.28C38.4381 42.34 38.5264 42.385 38.6264 42.415C38.7297 42.4417 38.8397 42.455 38.9564 42.455C39.1131 42.455 39.2564 42.44 39.3864 42.41C39.5164 42.3767 39.6381 42.33 39.7514 42.27C39.8681 42.21 39.9781 42.1383 40.0814 42.055C40.1881 41.9717 40.2914 41.8767 40.3914 41.77V40.72ZM37.5164 38.65C37.7964 38.38 38.0981 38.1783 38.4214 38.045C38.7447 37.9117 39.1031 37.845 39.4964 37.845C39.7797 37.845 40.0314 37.8917 40.2514 37.985C40.4714 38.0783 40.6564 38.2083 40.8064 38.375C40.9564 38.5417 41.0697 38.7433 41.1464 38.98C41.2231 39.2167 41.2614 39.4767 41.2614 39.76V43H40.8664C40.7797 43 40.7131 42.9867 40.6664 42.96C40.6197 42.93 40.5831 42.8733 40.5564 42.79L40.4564 42.31C40.3231 42.4333 40.1931 42.5433 40.0664 42.64C39.9397 42.7333 39.8064 42.8133 39.6664 42.88C39.5264 42.9433 39.3764 42.9917 39.2164 43.025C39.0597 43.0617 38.8847 43.08 38.6914 43.08C38.4947 43.08 38.3097 43.0533 38.1364 43C37.9631 42.9433 37.8114 42.86 37.6814 42.75C37.5547 42.64 37.4531 42.5017 37.3764 42.335C37.3031 42.165 37.2664 41.965 37.2664 41.735C37.2664 41.535 37.3214 41.3433 37.4314 41.16C37.5414 40.9733 37.7197 40.8083 37.9664 40.665C38.2131 40.5217 38.5347 40.405 38.9314 40.315C39.3281 40.2217 39.8147 40.1683 40.3914 40.155V39.76C40.3914 39.3667 40.3064 39.07 40.1364 38.87C39.9664 38.6667 39.7181 38.565 39.3914 38.565C39.1714 38.565 38.9864 38.5933 38.8364 38.65C38.6897 38.7033 38.5614 38.765 38.4514 38.835C38.3447 38.9017 38.2514 38.9633 38.1714 39.02C38.0947 39.0733 38.0181 39.1 37.9414 39.1C37.8814 39.1 37.8297 39.085 37.7864 39.055C37.7431 39.0217 37.7064 38.9817 37.6764 38.935L37.5164 38.65Z" fill="#161A23"/>
<path fill-rule="evenodd" clip-rule="evenodd" d="M26.9999 15C20.9249 15 16 16.056 16 19.9999C16 23.944 20.9249 25 26.9999 25C33.0751 25 38 23.944 38 19.9999C38 16.056 33.0751 15 26.9999 15Z" stroke="#1D1D1B"/>
<path fill-rule="evenodd" clip-rule="evenodd" d="M29.4999 8C25.3578 8 22 8.7392 22 11.4999C22 14.2607 25.3578 15 29.4999 15C33.6421 15 37 14.2607 37 11.4999C37 8.7392 33.6421 8 29.4999 8Z" stroke="#1D1D1B"/>
<path fill-rule="evenodd" clip-rule="evenodd" d="M24 3C20.6863 3 18 3.52803 18 5.5C18 7.47197 20.6863 8 24 8C27.3137 8 30 7.47197 30 5.5C30 3.52803 27.3137 3 24 3Z" stroke="#1D1D1B"/>
<path fill-rule="evenodd" clip-rule="evenodd" d="M28 0C25.7909 0 24 0.316811 24 1.50004C24 2.68319 25.7909 3 28 3C30.2092 3 32 2.68319 32 1.50004C32 0.316811 30.2092 0 28 0Z" stroke="#1D1D1B"/>
</g>
<defs>
<clipPath id="clip0">
<rect width="54" height="51" fill="white"/>
</clipPath>
</defs>
</svg>
