<svg width="14" height="15" viewBox="0 0 14 15" fill="none" xmlns="http://www.w3.org/2000/svg">
<path fill-rule="evenodd" clip-rule="evenodd" d="M11.833 8.56808H11.508L11.52 5.92308H11.833C12.561 5.92308 13.156 6.51908 13.156 7.24708C13.156 7.97408 12.561 8.56808 11.833 8.56808ZM6.597 10.2041V4.34408L10.75 1.15108L10.753 13.3491L6.597 10.2041ZM5.842 9.95108H3.388C2.48 9.95108 1.848 9.62008 1.414 9.12608C0.981 8.63008 0.755 7.95508 0.755 7.27408C0.755 6.59207 0.981 5.91708 1.414 5.42208C1.848 4.92707 2.48 4.59608 3.388 4.59608H5.842V9.95108ZM11.833 5.16908H11.523L11.508 0.379075C11.508 0.329075 11.498 0.278075 11.479 0.232075C11.459 0.186075 11.431 0.143075 11.395 0.108075C11.359 0.0720751 11.315 0.0450751 11.269 0.0260751C11.222 0.00807513 11.171 -0.000924875 11.121 7.51255e-05C11.041 0.00207513 10.962 0.0300751 10.899 0.0790751L6.014 3.84108H3.388C2.289 3.84108 1.416 4.27408 0.846 4.92408C0.276 5.57508 0 6.42707 0 7.27408C0 8.12008 0.278 8.97008 0.846 9.62308C1.705 10.6091 2.94 10.7061 3.388 10.7061H6.013L10.896 14.4151C10.951 14.4571 11.019 14.4851 11.088 14.4911C11.158 14.4991 11.229 14.4861 11.292 14.4551C11.355 14.4241 11.41 14.3761 11.447 14.3171C11.484 14.2571 11.504 14.1881 11.504 14.1181V9.32308H11.833C12.973 9.32308 13.911 8.38708 13.911 7.24708C13.911 6.10608 12.974 5.16908 11.833 5.16908Z" fill="#A29FAB"/>
</svg>
