<svg width="17" height="17" viewBox="0 0 17 17" fill="none" xmlns="http://www.w3.org/2000/svg">
<path fill-rule="evenodd" clip-rule="evenodd" d="M6.49586 0.451647C6.495 0.253903 6.64522 0.0881863 6.84215 0.0696338C6.85408 0.0690739 6.86603 0.0690739 6.87797 0.0696338H9.93484C10.1459 0.0696523 10.3169 0.240674 10.317 0.451647V1.59769H13.1828C13.2668 1.59725 13.3486 1.62452 13.4156 1.67528L16.6635 4.15836C16.7565 4.23075 16.8109 4.34198 16.8109 4.4598C16.8109 4.57761 16.7565 4.68884 16.6635 4.76123L13.4156 7.24431C13.3494 7.29721 13.2675 7.32661 13.1828 7.32788H10.317V8.09191H11.0812C11.2922 8.09193 11.4633 8.26295 11.4633 8.47392V13.4401C11.4633 13.6511 11.2922 13.8221 11.0812 13.8221H10.317V16.4962C10.3169 16.7072 10.1459 16.8782 9.93484 16.8782H6.87797C6.66695 16.8782 6.49588 16.7072 6.49586 16.4962V13.8221H3.63004C3.5453 13.8208 3.46339 13.7914 3.39719 13.7385L0.149264 11.2554C0.0562817 11.1831 0.00190735 11.0718 0.00190735 10.954C0.00190735 10.8362 0.0562817 10.725 0.149264 10.6526L3.39719 8.16948C3.45425 8.12559 3.52255 8.0987 3.59422 8.09191C3.60615 8.09135 3.61811 8.09135 3.63004 8.09191H6.49586V7.32788H5.73164C5.52062 7.32786 5.34955 7.15684 5.34953 6.94586V1.9797C5.34868 1.78195 5.49889 1.61624 5.69582 1.59769C5.70775 1.59713 5.71971 1.59713 5.73164 1.59769H6.49586V0.451647ZM9.55273 0.83366H7.26008V1.59769H9.55273V0.83366ZM6.11375 2.36171H13.0574L15.8038 4.46278L13.0514 6.56385H6.11375V2.36171ZM9.55273 7.32788H7.26008V8.09192H9.55273V7.32788ZM3.75542 8.85594H10.6991V13.0581H3.76139L1.00901 10.957L3.75542 8.85594ZM9.55273 13.8221H7.26008V16.1142H9.55273V13.8221Z" fill="#A29FAB"/>
</svg>
