<svg width="11" height="18" viewBox="0 0 11 18" fill="none" xmlns="http://www.w3.org/2000/svg">
<path fill-rule="evenodd" clip-rule="evenodd" d="M7.5 5C8.88071 5 10 3.88071 10 2.5C10 1.11929 8.88071 0 7.5 0C6.11929 0 5 1.11929 5 2.5C5 3.88071 6.11929 5 7.5 5Z" stroke="#A29FAB"/>
<mask id="path-2-inside-1" fill="white">
<path fill-rule="evenodd" clip-rule="evenodd" d="M5.84766 7.31021L5.35793 7.79558L1.04757 3.52361L1.5373 3.03824L5.84766 7.31021ZM5.9947 8.57241C5.64302 8.92095 5.07283 8.92095 4.72116 8.57241L0.263759 4.15471C-0.0879197 3.80616 -0.0879197 3.24106 0.263759 2.89251L0.90053 2.26141C1.25221 1.91286 1.82239 1.91286 2.17407 2.26141L6.63147 6.67911C6.98315 7.02765 6.98315 7.59276 6.63147 7.94131L5.9947 8.57241Z"/>
</mask>
<path d="M5.35793 7.79558L4.65399 8.50584L5.35793 9.20351L6.06186 8.50584L5.35793 7.79558ZM5.84766 7.31021L6.55159 8.02047L7.26824 7.31021L6.55159 6.59994L5.84766 7.31021ZM1.04757 3.52361L0.343634 2.81335L-0.373012 3.52361L0.343634 4.23387L1.04757 3.52361ZM1.5373 3.03824L2.24124 2.32798L1.5373 1.63031L0.833364 2.32798L1.5373 3.03824ZM4.72116 8.57241L4.01722 9.28267L4.72116 8.57241ZM5.9947 8.57241L5.29076 7.86214L5.9947 8.57241ZM0.263759 4.15471L-0.440178 4.86497L-0.440178 4.86497L0.263759 4.15471ZM0.263759 2.89251L-0.440178 2.18225L0.263759 2.89251ZM0.90053 2.26141L0.196593 1.55115L0.196593 1.55115L0.90053 2.26141ZM2.17407 2.26141L1.47014 2.97167L2.17407 2.26141ZM6.63147 6.67911L5.92753 7.38937L6.63147 6.67911ZM6.63147 7.94131L7.33541 8.65157L6.63147 7.94131ZM6.06186 8.50584L6.55159 8.02047L5.14372 6.59994L4.65399 7.08531L6.06186 8.50584ZM0.343634 4.23387L4.65399 8.50584L6.06186 7.08531L1.75151 2.81335L0.343634 4.23387ZM0.833364 2.32798L0.343634 2.81335L1.75151 4.23387L2.24124 3.7485L0.833364 2.32798ZM6.55159 6.59994L2.24124 2.32798L0.833364 3.7485L5.14372 8.02047L6.55159 6.59994ZM4.01722 9.28267C4.75869 10.0175 5.95717 10.0175 6.69863 9.28267L5.29076 7.86214C5.32887 7.82437 5.38698 7.82437 5.42509 7.86214L4.01722 9.28267ZM-0.440178 4.86497L4.01722 9.28267L5.42509 7.86214L0.967696 3.44445L-0.440178 4.86497ZM-0.440178 2.18225C-1.18661 2.92203 -1.18661 4.12519 -0.440178 4.86497L0.967696 3.44445C1.01077 3.48713 1.01077 3.56008 0.967696 3.60277L-0.440178 2.18225ZM0.196593 1.55115L-0.440178 2.18225L0.967696 3.60277L1.60447 2.97167L0.196593 1.55115ZM2.87801 1.55115C2.13654 0.816284 0.93806 0.816284 0.196593 1.55115L1.60447 2.97167C1.56636 3.00944 1.50824 3.00944 1.47014 2.97167L2.87801 1.55115ZM7.33541 5.96885L2.87801 1.55115L1.47014 2.97167L5.92753 7.38937L7.33541 5.96885ZM7.33541 8.65157C8.08184 7.91179 8.08184 6.70863 7.33541 5.96884L5.92753 7.38937C5.88446 7.34668 5.88446 7.27373 5.92753 7.23104L7.33541 8.65157ZM6.69863 9.28267L7.33541 8.65157L5.92753 7.23104L5.29076 7.86214L6.69863 9.28267Z" fill="#A29FAB" mask="url(#path-2-inside-1)"/>
<path d="M7.5 12.4286V17.5714" stroke="#A29FAB" stroke-linecap="square"/>
</svg>
