<svg width="17" height="16" viewBox="0 0 17 16" fill="none" xmlns="http://www.w3.org/2000/svg">
<g id="Group 25">
<path id="Line 17" d="M8.5 6.5V9.5" stroke="#EE2439"/>
<path id="Line 17 Copy" d="M9.5 2.5V4.5" stroke="#EE2439"/>
<path id="Line 17 Copy 2" d="M7.5 2.5V4.5" stroke="#EE2439"/>
<path id="Line 3 Copy 3" d="M5.5 0.5V7.5" stroke="#EE2439"/>
<path id="Line 17 Copy 3" d="M6.5 1.5V2.5" stroke="#EE2439"/>
<path id="Line 17 Copy 4" d="M10.5 1.5V2.5" stroke="#EE2439"/>
<path id="Line 3 Copy" d="M5.5 15.5L5.5 8.5" stroke="#EE2439"/>
<path id="Line 3 Copy 4" d="M11.5 15.5L11.5 8.5" stroke="#EE2439"/>
<path id="Line 17 Copy 8" d="M7.5 13.5V11.5" stroke="#EE2439"/>
<path id="Line 17 Copy 7" d="M9.5 13.5V11.5" stroke="#EE2439"/>
<path id="Line 17 Copy 6" d="M10.5 14.5V13.5" stroke="#EE2439"/>
<path id="Line 17 Copy 5" d="M6.5 14.5V13.5" stroke="#EE2439"/>
<path id="Line 3 Copy 7" d="M16 11L9 11" stroke="#EE2439"/>
<path id="Line 3 Copy 6" d="M16 5L9 5" stroke="#EE2439"/>
<path id="Line 17 Copy 17" d="M10 8L7 8" stroke="#EE2439"/>
<path id="Line 17 Copy 16" d="M14 9H12" stroke="#EE2439"/>
<path id="Line 17 Copy 15" d="M14 7H12" stroke="#EE2439"/>
<path id="Line 17 Copy 14" d="M15 6H14" stroke="#EE2439"/>
<path id="Line 17 Copy 13" d="M15 10H14" stroke="#EE2439"/>
<path id="Line 3" d="M11.5 0.5V7.5" stroke="#EE2439"/>
<path id="Line 3 Copy 2" d="M1 5H8" stroke="#EE2439"/>
<path id="Line 3 Copy 5" d="M1 11H8" stroke="#EE2439"/>
<path id="Line 17 Copy 12" d="M3 7H5" stroke="#EE2439"/>
<path id="Line 17 Copy 11" d="M3 9H5" stroke="#EE2439"/>
<path id="Line 17 Copy 10" d="M2 10H3" stroke="#EE2439"/>
<path id="Line 17 Copy 9" d="M2 6H3" stroke="#EE2439"/>
</g>
</svg>
